# Blender v2.76 (sub 0) OBJ File: 'Cookie.blend'
# www.blender.org
mtllib Cookie.mtl
o Cookie_Cube.001
v -0.624562 0.011595 0.008115
v -0.569445 0.090434 -0.125905
v -0.563430 -0.014657 -0.295228
v -0.549383 -0.081051 0.008115
v -0.575292 0.033061 0.297058
v -0.531853 -0.051361 0.272197
v 0.086211 0.011595 -0.702658
v 0.220231 0.090434 -0.647541
v 0.389553 -0.014657 -0.641526
v 0.086211 -0.081051 -0.627479
v -0.202732 0.033061 -0.653387
v -0.177871 -0.051361 -0.609949
v 0.796984 0.011595 0.008115
v 0.741867 0.090434 0.142135
v 0.735851 -0.014657 0.311458
v 0.721805 -0.081051 0.008115
v 0.747713 0.033061 -0.280828
v 0.704275 -0.051361 -0.255967
v 0.086211 0.011595 0.718888
v -0.047809 0.090434 0.663771
v -0.217132 -0.014657 0.657756
v 0.213072 -0.061021 0.664954
v 0.375154 0.033061 0.669617
v 0.207597 -0.078003 0.543918
v -0.383504 -0.052155 0.477830
v -0.383504 -0.052155 -0.461600
v 0.555925 -0.052155 -0.461600
v 0.557226 -0.051450 0.479933
v -0.122997 0.216549 -0.145201
v 0.417773 0.187454 0.336578
v 0.274896 0.202654 -0.278866
v -0.102474 0.202654 0.295096
v -0.432678 0.037596 0.527003
v -0.441933 0.155004 -0.119981
v -0.432678 0.037596 -0.510774
v 0.214307 0.155004 -0.520029
v 0.605100 0.037596 -0.510774
v 0.614355 0.155004 0.136211
v 0.605100 0.037596 0.527004
v -0.041885 0.155004 0.536259
v -0.362327 0.151783 0.329721
v -0.235395 0.151783 -0.440422
v 0.534748 0.151783 -0.313491
vt 0.055491 0.309821
vt 0.193635 0.281239
vt 0.158845 0.584429
vt 0.058745 0.688755
vt 0.064815 0.589264
vt 0.151937 0.848063
vt 0.281239 0.806365
vt 0.184099 0.805099
vt 0.070101 0.500000
vt 0.017179 0.500000
vt 0.080156 0.320612
vt 0.194901 0.184099
vt 0.309821 0.944509
vt 0.584429 0.841155
vt 0.688755 0.941254
vt 0.589264 0.935184
vt 0.848063 0.848063
vt 0.806365 0.718761
vt 0.805099 0.815900
vt 0.500000 0.929899
vt 0.500000 0.982821
vt 0.320612 0.919844
vt 0.944508 0.690179
vt 0.841155 0.415571
vt 0.941254 0.311245
vt 0.935184 0.410736
vt 0.848063 0.151937
vt 0.702502 0.275716
vt 0.821679 0.191738
vt 0.929899 0.500000
vt 0.982821 0.500000
vt 0.919844 0.679388
vt 0.690179 0.055491
vt 0.415571 0.158845
vt 0.311245 0.058745
vt 0.410736 0.064815
vt 0.151937 0.151937
vt 0.552528 0.141734
vt 0.584333 0.063976
vt 0.362018 0.595774
vt 0.372789 0.316726
vt 0.627210 0.683273
vt 0.500000 0.017179
vn -0.495700 0.863400 0.093900
vn -0.781600 0.517200 -0.348800
vn -0.407700 0.871800 -0.271600
vn -0.360300 -0.914600 -0.183500
vn -0.602200 -0.611300 -0.513500
vn -0.770800 -0.625400 0.121500
vn -0.699500 -0.508000 0.502700
vn -0.173500 -0.977300 0.121400
vn -0.093900 0.863400 -0.495700
vn 0.348800 0.517200 -0.781600
vn 0.271600 0.871800 -0.407700
vn 0.183500 -0.914600 -0.360300
vn 0.513500 -0.611300 -0.602200
vn -0.121500 -0.625400 -0.770800
vn -0.502700 -0.508000 -0.699500
vn -0.121400 -0.977300 -0.173500
vn 0.495700 0.863400 -0.093900
vn 0.781600 0.517200 0.348800
vn 0.418700 0.866900 0.270400
vn 0.361300 -0.914200 0.183400
vn 0.610400 -0.600900 0.516000
vn 0.770800 -0.625400 -0.121500
vn 0.699500 -0.508000 -0.502700
vn 0.173500 -0.977300 -0.121400
vn 0.123800 0.894100 0.430400
vn -0.348800 0.517200 0.781600
vn -0.271600 0.871800 0.407700
vn -0.071800 -0.961100 0.266700
vn -0.513500 -0.611300 0.602200
vn 0.367700 -0.665600 0.649500
vn 0.038000 -0.998100 -0.048000
vn 0.062800 -0.998000 -0.003900
vn 0.092600 -0.991200 0.094500
vn 0.026800 0.999200 0.030300
vn 0.013500 0.981600 0.190600
vn 0.040100 0.999100 0.015400
vn 0.132400 0.990700 -0.030500
vn -0.039600 0.982100 -0.184100
vn -0.186300 0.981700 0.040000
vn -0.749100 0.657800 0.078900
vn -0.453000 0.884200 0.113700
vn -0.499400 0.815100 0.293700
vn -0.933000 0.290000 -0.213100
vn -0.425000 0.864100 -0.269700
vn -0.772500 -0.626900 -0.101400
vn -0.851600 -0.491700 0.181700
vn -0.672300 -0.603300 0.428900
vn -0.078900 0.657800 -0.749100
vn -0.113700 0.884200 -0.453000
vn -0.293700 0.815100 -0.499400
vn 0.213100 0.290000 -0.933000
vn 0.269700 0.864100 -0.425000
vn 0.101400 -0.626900 -0.772500
vn -0.181700 -0.491700 -0.851600
vn -0.428900 -0.603400 -0.672300
vn 0.749100 0.657800 -0.078900
vn 0.453000 0.884200 -0.113700
vn 0.499400 0.815100 -0.293700
vn 0.933000 0.290000 0.213100
vn 0.425000 0.864100 0.269700
vn 0.772500 -0.626900 0.101400
vn 0.851600 -0.491700 -0.181700
vn 0.672300 -0.603300 -0.428900
vn 0.078900 0.657800 0.749100
vn 0.113700 0.884200 0.453000
vn 0.251700 0.865300 0.433400
vn -0.213100 0.290000 0.933000
vn -0.269700 0.864100 0.425000
vn -0.086100 -0.686600 0.721900
vn -0.108400 -0.983800 0.142900
vn 0.182800 -0.360200 0.914800
vn 0.433100 -0.592100 0.679600
vn 0.099400 -0.986000 0.133800
vn -0.052400 -0.995400 0.079800
vn -0.058400 -0.998300 0.008600
vn -0.051100 -0.997800 -0.043300
vn 0.189500 0.981700 -0.019800
vn 0.157500 0.960500 -0.229300
vn -0.033600 0.978800 -0.201900
vn -0.198100 0.970500 -0.137500
vn -0.186900 0.981600 0.039700
vn -0.157500 0.960500 0.229300
usemtl Material.001
s off
f 5/1/1 41/2/1 34/3/1
f 3/4/2 2/5/2 35/6/2
f 34/3/3 42/7/3 35/6/3
f 3/4/4 26/8/4 4/9/4
f 3/4/5 35/6/5 26/8/5
f 1/10/6 4/9/6 6/11/6
f 5/1/7 6/11/7 25/12/7
f 4/9/8 25/12/8 6/11/8
f 11/13/9 42/7/9 36/14/9
f 9/15/10 8/16/10 37/17/10
f 36/14/11 43/18/11 37/17/11
f 9/15/12 27/19/12 10/20/12
f 9/15/13 37/17/13 27/19/13
f 7/21/14 10/20/14 12/22/14
f 11/13/15 12/22/15 26/8/15
f 10/20/16 26/8/16 12/22/16
f 17/23/17 43/18/17 38/24/17
f 15/25/18 14/26/18 39/27/18
f 38/24/19 30/28/19 39/27/19
f 15/25/20 28/29/20 16/30/20
f 15/25/21 39/27/21 28/29/21
f 13/31/22 16/30/22 18/32/22
f 17/23/23 18/32/23 27/19/23
f 16/30/24 27/19/24 18/32/24
f 23/33/25 30/28/25 40/34/25
f 21/35/26 20/36/26 33/37/26
f 40/34/27 41/2/27 33/37/27
f 21/35/28 25/12/28 24/38/28
f 21/35/29 33/37/29 25/12/29
f 23/33/30 22/39/30 28/29/30
f 24/38/31 4/9/31 26/8/31
f 24/38/32 10/20/32 27/19/32
f 24/38/33 16/30/33 28/29/33
f 29/40/34 32/41/34 30/28/34
f 32/41/35 40/34/35 30/28/35
f 29/40/36 30/28/36 31/42/36
f 30/28/37 38/24/37 43/18/37
f 31/42/38 36/14/38 42/7/38
f 29/40/39 34/3/39 41/2/39
f 2/5/40 1/10/40 5/1/40
f 2/5/41 5/1/41 34/3/41
f 5/1/42 33/37/42 41/2/42
f 3/4/43 1/10/43 2/5/43
f 2/5/44 34/3/44 35/6/44
f 4/9/45 1/10/45 3/4/45
f 5/1/46 1/10/46 6/11/46
f 33/37/47 5/1/47 25/12/47
f 8/16/48 7/21/48 11/13/48
f 8/16/49 11/13/49 36/14/49
f 11/13/50 35/6/50 42/7/50
f 9/15/51 7/21/51 8/16/51
f 8/16/52 36/14/52 37/17/52
f 10/20/53 7/21/53 9/15/53
f 11/13/54 7/21/54 12/22/54
f 35/6/55 11/13/55 26/8/55
f 14/26/56 13/31/56 17/23/56
f 14/26/57 17/23/57 38/24/57
f 17/23/58 37/17/58 43/18/58
f 15/25/59 13/31/59 14/26/59
f 14/26/60 38/24/60 39/27/60
f 16/30/61 13/31/61 15/25/61
f 17/23/62 13/31/62 18/32/62
f 37/17/63 17/23/63 27/19/63
f 20/36/64 19/43/64 23/33/64
f 20/36/65 23/33/65 40/34/65
f 23/33/66 39/27/66 30/28/66
f 21/35/67 19/43/67 20/36/67
f 20/36/68 40/34/68 33/37/68
f 22/39/69 19/43/69 21/35/69
f 22/39/70 21/35/70 24/38/70
f 23/33/71 19/43/71 22/39/71
f 39/27/72 23/33/72 28/29/72
f 22/39/73 24/38/73 28/29/73
f 4/9/74 24/38/74 25/12/74
f 10/20/75 24/38/75 26/8/75
f 16/30/76 24/38/76 27/19/76
f 31/42/77 30/28/77 43/18/77
f 36/14/78 31/42/78 43/18/78
f 29/40/79 31/42/79 42/7/79
f 34/3/80 29/40/80 42/7/80
f 32/41/81 29/40/81 41/2/81
f 40/34/82 32/41/82 41/2/82
