# Blender v2.76 (sub 0) OBJ File: 'CupcakeCherry.blend'
# www.blender.org
mtllib CupcakeCherry.mtl
o Cupcake_Cylinder.005
v 0.036756 0.588087 -0.317779
v 0.036756 0.694238 -0.292490
v 0.243578 0.694238 -0.206822
v 0.261460 0.588087 -0.224704
v 0.036756 0.555679 -0.311477
v 0.272042 0.549145 -0.215707
v -0.187948 0.588087 -0.224704
v -0.170066 0.694238 -0.206822
v 0.036756 0.774734 -0.244827
v 0.211712 0.774734 -0.172358
v 0.354535 0.563669 0.000000
v -0.178951 0.546287 -0.215707
v 0.036756 0.555679 -0.311477
v -0.255734 0.649288 -0.000000
v -0.138200 0.774734 -0.172357
v 0.329247 0.649288 0.000000
v 0.284181 0.736709 0.002598
v 0.036756 0.841617 -0.150482
v 0.149084 0.841617 -0.103955
v 0.352538 0.555679 0.000000
v -0.279025 0.555679 -0.000000
v -0.281023 0.563669 -0.000000
v -0.210669 0.736709 0.002598
v -0.075572 0.841617 -0.103955
v 0.243578 0.622024 0.206822
v 0.211712 0.713646 0.177554
v 0.195612 0.817203 0.008374
v 0.062534 0.854282 -0.085732
v 0.036756 0.854690 -0.094669
v 0.261460 0.548858 0.224704
v -0.170066 0.622024 0.206822
v -0.138200 0.713646 0.177554
v -0.122100 0.817203 0.008374
v -0.003787 0.850539 -0.102130
v 0.036756 0.582026 0.292490
v 0.036756 0.679811 0.250023
v 0.149084 0.802396 0.120702
v 0.116524 0.851970 -0.042569
v -0.007062 0.857088 -0.112207
v 0.111794 0.855275 -0.071093
v 0.006064 0.852021 -0.100969
v -0.182345 0.522658 0.219101
v -0.187948 0.548858 0.224704
v -0.075572 0.802396 0.120702
v -0.055843 0.851720 -0.033114
v -0.036364 0.855977 -0.069403
v 0.036756 0.555679 0.306476
v 0.036756 0.780673 0.167230
v 0.120349 0.854893 0.007467
v 0.121464 0.855745 0.003305
v 0.117472 0.852695 -0.065697
v 0.123222 0.857088 -0.069875
v -0.037757 0.850876 0.053362
v -0.027504 0.851306 0.068434
v -0.068309 0.845176 -0.001381
v -0.086128 0.539013 0.266879
v 0.036756 0.544600 0.306476
v 0.090651 0.851499 0.070003
v 0.100282 0.852053 0.067636
v 0.110625 0.847464 0.057960
v 0.064956 0.973619 -0.112207
v 0.241111 0.586745 0.204302
v 0.000185 0.842594 0.087141
v -0.007062 0.857088 0.109445
v -0.065963 0.846383 0.004536
v -0.087583 0.857088 -0.001381
v 0.123222 0.857088 0.067113
v 0.045915 0.850729 0.083480
v 0.145478 0.973619 -0.001381
v -0.065327 0.973619 -0.069875
v 0.036756 0.849499 0.087482
v 0.031297 1.040939 -0.008614
v 0.035705 1.041463 -0.001381
v 0.019426 1.038365 -0.008299
v 0.033884 0.849885 0.086227
v -0.065327 0.973619 0.067113
v 0.064956 0.973619 0.109445
v 0.031308 1.040919 0.005883
v 0.034394 1.116014 -0.000202
v 0.023178 1.041232 0.002811
v 0.030674 1.120258 0.006166
v 0.019429 1.038368 -0.008297
v 0.030334 1.115889 -0.007652
v 0.019191 1.120649 -0.008558
v 0.024172 1.124122 0.001875
v 0.019194 1.120650 -0.008556
v 0.140303 1.261712 -0.056748
v 0.144363 1.261837 -0.049297
v 0.140643 1.266081 -0.042930
v 0.134141 1.269946 -0.047221
v 0.129163 1.266473 -0.057651
v 0.141297 1.268843 -0.051448
v 0.129160 1.266472 -0.057653
v 0.036756 0.005653 -0.178354
v 0.036756 0.479084 -0.295835
v 0.245943 0.450713 -0.209187
v 0.162872 0.005653 -0.126115
v -0.089359 0.005653 -0.126115
v 0.215110 0.005653 0.000000
v 0.162872 0.005653 0.126115
v 0.036756 0.005653 0.178354
v -0.089359 0.005653 0.126115
v -0.141598 0.005653 -0.000000
v 0.332591 0.479084 0.000000
v -0.172431 0.450713 -0.209187
v 0.245943 0.450713 0.209187
v 0.036756 0.479084 0.295835
v -0.172431 0.450713 0.209187
v -0.259079 0.479084 -0.000000
v 0.036756 0.730872 -0.244256
v 0.210390 0.730872 -0.172335
v -0.136878 0.730872 -0.172335
v 0.282311 0.693135 0.001299
v -0.208799 0.693135 0.001299
v 0.210390 0.670246 0.174933
v -0.136878 0.670246 0.174933
v 0.036756 0.636666 0.246855
v 0.038182 0.639150 -0.285611
v 0.241111 0.639150 -0.201555
v -0.164747 0.639150 -0.201555
v 0.325167 0.606528 0.001374
v -0.248803 0.606528 0.001374
v 0.241111 0.586742 0.204303
v -0.164747 0.586742 0.204303
v 0.038182 0.575143 0.280919
vt 0.910955 0.382403
vt 0.911904 0.537758
vt 0.900089 0.537758
vt 0.899363 0.382403
vt 0.895333 0.641070
vt 0.905252 0.641070
vt 0.905330 0.764765
vt 0.895336 0.764765
vt 0.871566 0.410992
vt 0.871376 0.290406
vt 0.902555 0.238401
vt 0.871566 0.169538
vt 0.871387 0.534646
vt 0.871207 0.657530
vt 0.892319 0.953381
vt 0.885902 0.953381
vt 0.426317 0.575803
vt 0.389628 0.546259
vt 0.393300 0.546259
vt 0.847440 0.470096
vt 0.847079 0.592490
vt 0.870411 0.884533
vt 0.883389 0.989098
vt 0.884622 0.990249
vt 0.843042 0.334105
vt 0.843390 0.234608
vt 0.840576 0.127770
vt 0.881137 0.993878
vt 0.885651 0.978543
vt 0.885490 0.982723
vt 0.837522 0.375399
vt 0.837085 0.497072
vt 0.854919 0.842775
vt 0.881370 0.991898
vt 0.880626 0.984623
vt 0.877436 0.982580
vt 0.693598 0.082076
vt 0.696836 0.111991
vt 0.683232 0.111991
vt 0.681889 0.091924
vt 0.683623 0.103708
vt 0.688328 0.099173
vt 0.691200 0.101036
vt 0.693224 0.088846
vt 0.870940 0.966821
vt 0.871756 0.963418
vt 0.876132 0.981874
vt 0.848503 0.781513
vt 0.871110 0.993223
vt 0.870536 0.990822
vt 0.834760 0.100005
vt 0.829299 0.147005
vt 0.832824 0.201897
vt 0.864206 0.979492
vt 0.862128 0.980707
vt 0.861911 0.981249
vt 0.862238 0.982812
vt 0.863572 0.969872
vt 0.696836 0.644308
vt 0.841349 0.053884
vt 0.859674 0.976698
vt 0.859548 0.956136
vt 0.859501 0.975610
vt 0.625605 0.111991
vt 0.661220 0.111991
vt 0.661220 0.057576
vt 0.659319 0.063089
vt 0.643628 0.083613
vt 0.638784 0.085581
vt 0.632773 0.045782
vt 0.683080 0.106916
vt 0.671418 0.087472
vt 0.860053 0.979079
vt 0.658377 0.101965
vt 0.659715 0.105854
vt 0.674457 0.088614
vt 0.639209 0.111991
vt 0.642150 0.068030
vt 0.661220 0.644308
vt 0.683232 0.644308
vt 0.663545 0.951826
vt 0.661220 0.954219
vt 0.663444 0.940068
vt 0.639209 0.644308
vt 0.633066 0.079087
vt 0.633949 0.082944
vt 0.638280 0.086460
vt 0.639041 0.088991
vt 0.000000 0.000000
vt 0.625605 0.644308
vt 0.658886 0.951733
vt 0.006265 0.982315
vt 0.006534 0.983966
vt 0.659873 0.953162
vt 0.006514 0.984067
vt 0.007490 0.992726
vt 0.007503 0.992769
vt 0.006382 0.983976
vt 0.006249 0.982275
vt 0.006655 0.983942
vt 0.007565 0.992830
vt 0.007608 0.992644
vt 0.007406 0.992674
vt 0.478203 0.575803
vt 0.463006 0.546259
vt 0.448436 0.082786
vt 0.457598 0.082786
vt 0.473253 0.575803
vt 0.458822 0.546259
vt 0.426317 0.082786
vt 0.404198 0.082786
vt 0.395035 0.082786
vt 0.901314 0.053884
vt 0.915391 0.238401
vt 0.914522 0.147005
vt 0.871566 0.147005
vt 0.374431 0.575803
vt 0.831228 0.221308
vt 0.386100 0.560891
vt 0.380133 0.575803
vt 0.834631 0.105799
vn 0.380600 -0.104900 -0.918800
vn -0.379700 -0.124300 -0.916700
vn 0.382700 -0.012000 -0.923800
vn 0.914300 -0.088000 -0.395400
vn -0.800500 0.540100 -0.259600
vn -0.382700 -0.012000 -0.923800
vn 0.921400 -0.028000 -0.387700
vn 0.233000 0.793400 -0.562400
vn -0.909800 -0.206900 0.359800
vn -0.921400 -0.028000 -0.387700
vn -0.233000 0.793400 -0.562400
vn 0.925000 -0.050900 0.376500
vn 0.664000 0.738900 -0.114500
vn 0.094000 0.969300 -0.227000
vn 0.924000 -0.083000 0.373200
vn -0.731700 0.584700 0.350400
vn -0.925000 -0.050900 0.376500
vn -0.664000 0.738900 -0.114500
vn -0.112000 0.956200 -0.270300
vn 0.392900 -0.067400 0.917100
vn 0.641300 0.680100 0.355300
vn 0.377900 0.924800 0.044500
vn 0.187600 -0.794600 -0.577400
vn 0.073300 0.947700 -0.310700
vn -0.037800 0.973000 -0.227900
vn -0.392900 -0.067400 0.917100
vn -0.641300 0.680100 0.355300
vn -0.461100 0.887300 0.001900
vn 0.193700 0.622500 0.758300
vn 0.425800 0.857300 0.289400
vn 0.464300 0.877200 -0.122200
vn -0.272800 0.591400 0.758900
vn -0.193700 0.622500 0.758300
vn -0.490700 0.814100 0.310600
vn -0.303300 0.951500 -0.051200
vn 0.108800 0.773800 0.624000
vn 0.563500 0.794700 0.225500
vn 0.303500 -0.187600 -0.934200
vn -0.390600 -0.271600 0.879600
vn -0.132000 0.762000 0.634000
vn -0.491100 -0.794700 0.356800
vn -0.444500 0.878300 0.176000
vn -0.491100 -0.794700 -0.356800
vn 0.180800 0.744600 0.642600
vn 0.607100 -0.794700 0.000000
vn 0.794600 0.187600 -0.577400
vn -0.303500 0.187600 -0.934200
vn -0.794600 -0.187600 -0.577400
vn 0.982200 -0.187600 0.000000
vn 0.491100 0.794700 -0.356800
vn -0.187600 0.794700 -0.577400
vn -0.794600 -0.187600 0.577400
vn 0.187600 -0.794700 0.577400
vn -0.982200 0.187600 0.000000
vn -0.000000 0.955900 0.293800
vn 0.794600 0.187600 0.577400
vn 0.491100 0.794700 0.356800
vn 0.865700 0.020300 -0.500200
vn -0.607100 0.794700 -0.000000
vn -0.303500 0.187600 0.934200
vn 0.303500 -0.187600 0.934200
vn -0.187600 0.794700 0.577400
vn 0.859900 0.006000 0.510400
vn -0.448500 0.004600 0.893800
vn 0.682100 -0.635900 -0.361000
vn 0.708000 -0.322300 0.628400
vn -0.927400 0.007000 0.373900
vn 0.518200 -0.001200 -0.855200
vn -0.265300 0.481300 0.835400
vn 0.026000 0.004700 -0.999700
vn -0.045400 -0.287800 -0.956600
vn 0.853000 0.229500 -0.468700
vn 0.869900 0.445700 0.211200
vn -0.762900 0.627600 0.155300
vn 0.445500 -0.561500 -0.697300
vn 0.323200 0.892700 0.314200
vn 0.295800 0.542900 -0.786000
vn -0.031600 0.952700 -0.302100
vn 0.355800 -0.230000 -0.905800
vn -0.355800 -0.230000 -0.905800
vn -0.381100 -0.132200 -0.915000
vn 0.000000 -1.000000 0.000000
vn 0.905800 -0.230000 -0.355800
vn -0.379300 -0.230700 -0.896100
vn -0.898100 -0.258000 0.356200
vn 0.905800 -0.230000 0.355800
vn 0.355800 -0.230000 0.905800
vn -0.355800 -0.230000 0.905800
vn -0.905800 -0.230000 0.355800
vn -0.905800 -0.230000 -0.355800
vn -0.879600 -0.265500 -0.394800
vn -0.909500 -0.154400 -0.386000
vn 0.362700 -0.170100 -0.916300
vn 0.383700 -0.301200 0.873000
vn 0.374300 -0.141000 -0.916500
vn -0.412800 -0.179900 0.892900
vn -0.326100 -0.225000 0.918200
vn -0.190400 0.629300 0.753500
vn 0.190400 0.629300 0.753500
vn -0.643200 0.678000 0.355800
vn 0.643200 0.678000 0.355800
vn -0.675800 0.727000 -0.121900
vn 0.675800 0.727000 -0.121900
vn -0.243000 0.772500 -0.586700
vn 0.243000 0.772500 -0.586700
vn -0.919400 -0.149700 0.363700
vn 0.755400 0.549300 0.357300
vn -0.905000 -0.140500 -0.401500
vn 0.819300 0.504700 -0.272000
vn -0.329200 0.509900 -0.794800
vn 0.332300 0.496100 -0.802200
vn -0.382800 -0.347300 0.856100
vn 0.340600 -0.150700 0.928100
vn 0.905100 -0.226300 0.360000
vn 0.927000 0.100300 -0.361300
vn 0.907600 -0.251300 -0.336400
vn 0.909500 -0.216100 0.355000
vn 0.351600 -0.200200 0.914500
vn 0.275400 0.584300 0.763400
usemtl Material.003
s off
f 118/1/1 2/2/1 3/3/1 119/4/1
f 120/4/2 8/3/2 2/2/2 118/1/2
f 111/5/3 110/6/3 9/7/3 10/8/3
f 119/4/4 3/3/4 16/9/4 121/10/4
f 120/4/5 7/11/5 22/12/5 122/10/5
f 110/6/6 112/5/6 15/8/6 9/7/6
f 113/13/7 111/5/7 10/8/7 17/14/7
f 10/8/8 9/7/8 18/15/8 19/16/8
f 109/17/9 108/18/9 42/19/9 21/17/9
f 112/5/10 114/13/10 23/14/10 15/8/10
f 9/7/11 15/8/11 24/16/11 18/15/11
f 115/20/12 113/13/12 17/14/12 26/21/12
f 17/14/13 10/8/13 19/16/13 27/22/13
f 28/23/14 19/16/14 18/15/14 29/24/14
f 121/10/15 16/9/15 25/25/15 123/26/15
f 122/10/16 22/12/16 43/27/16 124/26/16
f 114/13/17 116/20/17 32/21/17 23/14/17
f 15/8/18 23/14/18 33/22/18 24/16/18
f 18/15/19 24/16/19 46/28/19 34/29/19 41/30/19
f 117/31/20 115/20/20 26/21/20 36/32/20
f 26/21/21 17/14/21 27/22/21 37/33/21
f 27/22/22 19/16/22 40/34/22 51/35/22 38/36/22
f 34/37/23 39/38/23 52/39/23 51/40/23 40/41/23 28/42/23 29/43/23 41/44/23
f 40/34/24 19/16/24 28/23/24
f 29/24/25 18/15/25 41/30/25
f 116/20/26 117/31/26 36/32/26 32/21/26
f 23/14/27 32/21/27 44/33/27 33/22/27
f 24/16/28 33/22/28 65/45/28 55/46/28 45/47/28
f 36/32/29 26/21/29 37/33/29 48/48/29
f 37/33/30 27/22/30 50/49/30 49/50/30
f 50/49/31 27/22/31 38/36/31
f 124/26/32 43/27/32 56/51/32 57/52/32 47/52/32 125/53/32
f 32/21/33 36/32/33 48/48/33 44/33/33
f 53/54/34 33/22/34 44/33/34 54/55/34
f 46/28/35 24/16/35 45/47/35
f 58/56/36 48/48/36 37/33/36 59/57/36
f 37/33/37 49/50/37 60/58/37 59/57/37
f 52/39/38 39/38/38 61/59/38
f 56/51/39 43/27/39 42/60/39
f 75/61/40 63/62/40 54/55/40 44/33/40 48/48/40 71/63/40
f 64/64/41 66/65/41 55/66/41 65/67/41 53/68/41 54/69/41 63/70/41
f 65/45/42 33/22/42 53/54/42
f 55/66/43 66/65/43 39/38/43 34/37/43 46/71/43 45/72/43
f 58/56/44 68/73/44 71/63/44 48/48/44
f 49/74/45 50/75/45 38/76/45 51/40/45 52/39/45 67/77/45 60/78/45
f 52/39/46 61/59/46 69/79/46
f 39/38/47 70/80/47 61/59/47
f 39/38/48 66/65/48 70/80/48
f 67/77/49 52/39/49 69/79/49
f 69/79/50 61/59/50 72/81/50 73/82/50
f 70/80/51 74/83/51 82/83/51 72/81/51 61/59/51
f 66/65/52 64/64/52 76/84/52
f 63/70/53 75/85/53 68/86/53 58/87/53 59/88/53 60/78/53 67/77/53 64/64/53
f 66/65/54 76/84/54 70/80/54
f 75/89/55 71/89/55 68/89/55
f 67/77/56 69/79/56 77/90/56
f 77/90/57 69/79/57 73/82/57 78/91/57
f 73/92/58 72/92/58 83/93/58 79/93/58
f 70/80/59 76/84/59 80/94/59 74/83/59
f 64/64/60 77/90/60 76/84/60
f 64/64/61 67/77/61 77/90/61
f 76/84/62 77/90/62 78/91/62 80/94/62
f 78/92/63 73/92/63 79/93/63 81/93/63
f 80/92/64 78/92/64 81/93/64 85/95/64
f 79/93/65 83/93/65 87/96/65 88/97/65
f 81/93/66 79/93/66 88/97/66 89/97/66
f 85/95/67 84/98/67 74/99/67 80/92/67
f 84/98/68 86/100/68 82/92/68 74/99/68
f 85/95/69 81/93/69 89/97/69 90/101/69
f 86/100/70 83/93/70 72/92/70 82/92/70
f 83/93/71 86/100/71 91/102/71 87/96/71
f 88/97/72 87/96/72 92/97/72
f 89/97/73 88/97/73 92/97/73
f 84/98/74 85/95/74 90/101/74 93/103/74
f 86/100/75 84/98/75 93/103/75 91/102/75
f 90/101/76 89/97/76 92/97/76
f 87/96/77 91/102/77 92/97/77
f 90/101/78 92/97/78 91/102/78 93/103/78
f 95/104/79 96/105/79 97/106/79 94/107/79
f 94/107/80 98/106/80 105/105/80 95/104/80
f 13/108/81 95/104/81 105/105/81 12/109/81
f 94/107/82 97/106/82 99/110/82 100/111/82 101/112/82 102/111/82 103/110/82 98/106/82
f 96/105/83 104/17/83 99/110/83 97/106/83
f 12/113/84 7/11/84 1/114/84 5/115/84 13/115/84
f 42/60/85 43/27/85 22/12/85 21/116/85
f 100/111/86 99/110/86 104/17/86 106/18/86
f 101/112/87 100/111/87 106/18/87 107/117/87
f 102/111/88 101/112/88 107/117/88 108/18/88
f 103/110/89 102/111/89 108/18/89 109/17/89
f 98/106/90 103/110/90 109/17/90 105/105/90
f 21/116/91 22/12/91 7/11/91 12/113/91
f 105/105/92 109/17/92 21/17/92 12/109/92
f 96/105/93 95/104/93 13/108/93 5/108/93 6/109/93
f 125/53/94 62/26/94 25/25/94 35/118/94
f 5/115/95 1/114/95 4/11/95 6/113/95
f 42/19/96 108/18/96 56/119/96
f 108/18/97 107/117/97 57/120/97 56/119/97
f 31/25/98 35/118/98 117/31/98 116/20/98
f 35/118/99 25/25/99 115/20/99 117/31/99
f 14/9/100 31/25/100 116/20/100 114/13/100
f 25/25/101 16/9/101 113/13/101 115/20/101
f 8/3/102 14/9/102 114/13/102 112/5/102
f 16/9/103 3/3/103 111/5/103 113/13/103
f 2/2/104 8/3/104 112/5/104 110/6/104
f 3/3/105 2/2/105 110/6/105 111/5/105
f 14/9/106 122/10/106 124/26/106 31/25/106
f 11/12/107 121/10/107 123/26/107 30/27/107
f 8/3/108 120/4/108 122/10/108 14/9/108
f 4/11/109 119/4/109 121/10/109 11/12/109
f 7/11/110 120/4/110 118/1/110 1/114/110
f 1/114/111 118/1/111 119/4/111 4/11/111
f 31/25/112 124/26/112 125/53/112 35/118/112
f 107/117/113 30/19/113 57/120/113
f 20/116/114 11/12/114 30/60/114
f 4/11/115 11/12/115 20/116/115 6/113/115
f 104/17/116 96/105/116 6/109/116 20/17/116
f 106/18/117 104/17/117 20/17/117 30/19/117
f 107/117/118 106/18/118 30/19/118
f 30/27/119 62/26/119 125/53/119 47/52/119 57/121/119
