# Blender v2.76 (sub 0) OBJ File: 'Icecream.blend'
# www.blender.org
mtllib Icecream.mtl
o Icecream_Cone
v -0.292337 0.147153 0.233132
v 0.000000 -1.000000 -0.000000
v -0.156636 0.107560 0.325258
v -0.164639 0.105345 0.317974
v -0.357951 0.126423 0.081700
v -0.350308 0.119011 0.092144
v 0.000000 0.132594 0.369168
v -0.008569 0.123984 0.364406
v -0.086240 0.081781 0.332922
v -0.106248 0.077633 0.327003
v -0.122574 0.081781 0.324629
v -0.150699 0.099248 0.323903
v -0.357951 0.126422 -0.081700
v -0.352461 0.109146 0.067727
v -0.343766 0.081782 0.020190
v -0.342310 0.077202 0.000000
v -0.343766 0.081782 -0.020190
v -0.352461 0.109146 -0.067727
v 0.161790 0.144004 0.335960
v 0.003513 0.128973 0.367186
v -0.292337 0.147152 -0.233131
v -0.350308 0.119010 -0.092144
v 0.276767 0.086054 0.220715
v -0.156636 0.107560 -0.325257
v -0.164639 0.105344 -0.317975
v 0.361562 0.137783 0.082524
v 0.289978 0.081781 0.190152
v 0.281915 0.078950 0.204821
v 0.278259 0.081781 0.214487
v 0.000000 0.132593 -0.369168
v -0.150699 0.099248 -0.323903
v -0.122574 0.081781 -0.324629
v -0.106248 0.077633 -0.327003
v -0.086240 0.081781 -0.332922
v -0.008568 0.123984 -0.364406
v 0.361562 0.137783 -0.082524
v 0.161790 0.144004 -0.335960
v 0.003512 0.128973 -0.367186
v 0.276767 0.086053 -0.220714
v 0.278259 0.081781 -0.214487
v 0.281915 0.078950 -0.204821
v 0.289978 0.081781 -0.190152
v 0.288744 0.252373 0.209782
v 0.339437 0.221043 0.000000
v 0.379504 0.430829 0.123306
v 0.234546 0.430829 0.322825
v 0.354185 0.219092 0.257327
v 0.416367 0.180660 0.000000
v 0.379504 0.430829 -0.123306
v 0.104894 0.221042 0.322823
v 0.274611 0.640616 0.199516
v 0.288744 0.252373 -0.209782
v 0.354185 0.219092 -0.257327
v 0.128667 0.180659 0.395988
v 0.289978 0.081781 0.210679
v 0.356906 0.609283 0.000000
v 0.000000 0.430829 0.399034
v 0.110288 0.609285 0.339438
v 0.104894 0.221042 -0.322823
v 0.128667 0.180659 -0.395988
v 0.289978 0.081781 -0.210679
v -0.110288 0.252373 0.339438
v -0.135284 0.219091 0.416368
v 0.274611 0.640616 -0.199516
v 0.234546 0.430829 -0.322825
v 0.064825 0.770269 0.199515
v 0.209784 0.770268 0.000000
v -0.110288 0.252373 -0.339438
v -0.135284 0.219091 -0.416368
v -0.274611 0.221043 0.199516
v -0.336849 0.180660 0.244734
v -0.110760 0.081781 0.340889
v -0.104894 0.640616 0.322823
v -0.234546 0.430829 0.322825
v -0.274611 0.221043 -0.199516
v -0.336849 0.180660 -0.244734
v 0.000000 0.430829 -0.399034
v -0.110760 0.081781 -0.340889
v -0.356906 0.252375 0.000000
v -0.437796 0.219094 0.000000
v 0.110288 0.609285 -0.339438
v 0.064825 0.770269 -0.199515
v -0.169718 0.770269 0.123306
v 0.000000 0.829863 0.000000
v -0.234546 0.430829 -0.322825
v -0.379504 0.430829 0.123306
v -0.358435 0.081782 0.000000
v -0.288744 0.609285 0.209782
v -0.379504 0.430829 -0.123306
v -0.104894 0.640616 -0.322823
v -0.169718 0.770269 -0.123306
v -0.339437 0.640615 0.000000
v -0.288744 0.609285 -0.209782
vt 0.060176 0.925567
vt 0.113281 0.043688
vt 0.034565 0.903127
vt 0.036610 0.901240
vt 0.095185 0.909035
vt 0.092805 0.904370
vt 0.017001 0.928745
vt 0.018645 0.921607
vt 0.030014 0.886417
vt 0.032265 0.882761
vt 0.033467 0.885377
vt 0.034678 0.897296
vt 0.131378 0.909035
vt 0.098245 0.897736
vt 0.108782 0.879734
vt 0.113281 0.876707
vt 0.117780 0.879734
vt 0.128318 0.897736
vt 0.018022 0.947473
vt 0.017351 0.926091
vt 0.166387 0.925567
vt 0.133757 0.904370
vt 0.046565 0.903069
vt 0.191997 0.903126
vt 0.189952 0.901239
vt 0.087059 0.956312
vt 0.055364 0.899766
vt 0.051186 0.896847
vt 0.048392 0.899263
vt 0.209561 0.928745
vt 0.191884 0.897296
vt 0.193096 0.885377
vt 0.194298 0.882761
vt 0.196548 0.886417
vt 0.207917 0.921607
vt 0.139504 0.956312
vt 0.208540 0.947473
vt 0.209211 0.926091
vt 0.179997 0.903069
vt 0.178171 0.899263
vt 0.175377 0.896847
vt 0.171199 0.899766
vt 0.372201 0.244727
vt 0.406250 0.204967
vt 0.386237 0.471189
vt 0.353853 0.471189
vt 0.364484 0.202491
vt 0.406250 0.153721
vt 0.426263 0.471189
vt 0.353854 0.204967
vt 0.373867 0.737411
vt 0.440299 0.244727
vt 0.448016 0.202491
vt 0.341979 0.153720
vt 0.372055 0.028242
vt 0.406250 0.697650
vt 0.341484 0.471189
vt 0.351157 0.697652
vt 0.458646 0.204967
vt 0.470521 0.153720
vt 0.440445 0.028242
vt 0.351157 0.244726
vt 0.338671 0.202491
vt 0.375387 0.028242
vt 0.392856 0.099310
vt 0.419644 0.099310
vt 0.437113 0.028242
vt 0.438633 0.737411
vt 0.458647 0.471189
vt 0.373867 0.901944
vt 0.406250 0.901942
vt 0.461343 0.244726
vt 0.473829 0.202491
vt 0.373867 0.204967
vt 0.366528 0.153721
vt 0.350922 0.028242
vt 0.347105 0.081798
vt 0.346332 0.092724
vt 0.346653 0.088130
vt 0.371437 0.028242
vt 0.351722 0.107204
vt 0.370427 0.033664
vt 0.373006 0.024649
vt 0.439494 0.024649
vt 0.353854 0.737412
vt 0.438633 0.204967
vt 0.445972 0.153721
vt 0.471016 0.471189
vt 0.461578 0.028242
vt 0.465847 0.088130
vt 0.466168 0.092724
vt 0.465395 0.081799
vt 0.441063 0.028242
vt 0.442073 0.033664
vt 0.460778 0.107204
vt 0.406250 0.244729
vt 0.406250 0.202494
vt 0.354641 0.058145
vt 0.353459 0.060957
vt 0.353678 0.050408
vt 0.352215 0.028242
vt 0.461343 0.697652
vt 0.438633 0.901944
vt 0.386237 0.901944
vt 0.406250 0.977569
vt 0.458822 0.050408
vt 0.459041 0.060956
vt 0.457859 0.058145
vt 0.460285 0.028242
vt 0.406250 0.028244
vt 0.395257 0.062969
vt 0.392990 0.084893
vt 0.391294 0.075487
vt 0.353561 0.028242
vt 0.368411 0.111200
vt 0.353175 0.022978
vt 0.372201 0.697652
vt 0.421206 0.075487
vt 0.419510 0.084893
vt 0.417243 0.062969
vt 0.458939 0.028242
vt 0.444089 0.111200
vt 0.458646 0.737412
vt 0.459325 0.022978
vt 0.402973 0.028244
vt 0.426263 0.901944
vt 0.406250 0.737411
vt 0.409527 0.028244
vt 0.440299 0.697652
vt 0.406250 0.022431
vn -0.594200 -0.302900 0.745100
vn -0.858700 -0.302900 0.413500
vn -0.212100 -0.302900 0.929100
vn -0.953000 -0.302900 0.000000
vn 0.212100 -0.302900 0.929100
vn -0.858700 -0.302900 -0.413500
vn 0.594200 -0.302900 0.745100
vn -0.594200 -0.302900 -0.745100
vn 0.858700 -0.302900 0.413500
vn -0.212100 -0.302900 -0.929100
vn 0.953000 -0.302900 0.000000
vn 0.212100 -0.302900 -0.929100
vn 0.858700 -0.302900 -0.413500
vn 0.594200 -0.302900 -0.745100
vn 0.905000 -0.330400 0.268000
vn 0.802600 -0.125600 0.583100
vn 0.464700 0.885200 -0.019900
vn 0.982200 -0.187600 0.000000
vn 0.534600 -0.330400 0.777900
vn 0.794700 0.187600 0.577300
vn 0.464700 0.885200 0.019900
vn 0.124700 0.885200 0.448100
vn 0.832500 -0.482100 0.273200
vn 0.992100 0.125600 0.000000
vn 0.905000 -0.330400 -0.268000
vn 0.303500 -0.187600 0.934200
vn 0.574600 0.330400 0.748800
vn 0.889700 0.330400 0.315100
vn 0.124700 0.885200 -0.448100
vn 0.832500 -0.482100 -0.273200
vn 0.162500 0.885200 0.435800
vn 0.517000 -0.482100 0.707300
vn 0.616200 -0.787600 0.000000
vn 0.889700 0.330400 -0.315100
vn 0.802600 -0.125600 -0.583100
vn 0.306600 0.125600 0.943500
vn 0.024700 -0.330400 0.943500
vn 0.408900 0.661700 0.628400
vn 0.724000 0.661700 0.194700
vn 0.162500 0.885200 -0.435800
vn 0.534600 -0.330400 -0.777900
vn 0.517000 -0.482100 -0.707300
vn -0.387600 0.885200 0.257000
vn -0.002500 -0.482100 0.876100
vn 0.190400 -0.787600 0.586000
vn 0.331300 -0.943500 0.000000
vn 0.794700 0.187600 -0.577300
vn 0.724000 0.661700 -0.194700
vn -0.024700 0.330400 0.943500
vn -0.306600 -0.125600 0.943500
vn 0.038500 0.661700 0.748800
vn 0.491100 0.794700 0.356800
vn -0.387600 0.885200 -0.257000
vn 0.024700 -0.330400 -0.943500
vn -0.002500 -0.482100 -0.876100
vn 0.303500 -0.187600 -0.934200
vn 0.190400 -0.787600 -0.586000
vn -0.574600 -0.330400 0.748800
vn -0.364200 0.885200 0.289300
vn -0.512900 -0.482100 0.710300
vn 0.102400 -0.943500 0.315100
vn 0.102400 -0.943500 -0.315100
vn 0.574600 0.330400 -0.748800
vn 0.491100 0.794700 -0.356800
vn -0.303500 0.187600 0.934200
vn -0.187600 0.794700 0.577300
vn 0.268000 0.943500 0.194700
vn -0.364200 0.885200 -0.289300
vn -0.574600 -0.330400 -0.748800
vn -0.512900 -0.482100 -0.710300
vn -0.306600 -0.125600 -0.943500
vn 0.306600 0.125600 -0.943500
vn -0.794700 -0.187600 0.577300
vn -0.889700 -0.330400 0.315100
vn -0.834000 -0.482000 0.268300
vn -0.498500 -0.787600 0.362200
vn 0.408900 0.661700 -0.628400
vn 0.268000 0.943500 -0.194700
vn -0.534600 0.330400 0.777900
vn -0.102400 0.943500 0.315100
vn -0.471300 0.661700 0.583100
vn -0.889700 -0.330400 -0.315100
vn -0.834000 -0.482000 -0.268300
vn -0.794700 -0.187600 -0.577300
vn -0.498500 -0.787600 -0.362200
vn -0.303500 0.187600 -0.934200
vn -0.024700 0.330400 -0.943500
vn -0.802600 0.125600 0.583100
vn -0.992100 -0.125600 0.000000
vn -0.268000 -0.943500 0.194700
vn 0.038500 0.661700 -0.748800
vn -0.102400 0.943500 -0.315100
vn -0.331300 0.943500 0.000000
vn -0.700200 0.661700 0.268000
vn -0.802600 0.125600 -0.583100
vn -0.268000 -0.943500 -0.194700
vn -0.534600 0.330400 -0.777900
vn -0.905000 0.330400 0.268000
vn -0.982200 0.187600 0.000000
vn -0.187600 0.794700 -0.577300
vn -0.607100 0.794700 0.000000
vn -0.905000 0.330400 -0.268000
vn -0.471300 0.661700 -0.583100
vn -0.700200 0.661700 -0.268000
usemtl Material.002
s off
f 1/1/1 2/2/1 3/3/1 4/4/1
f 5/5/2 2/2/2 1/1/2 6/6/2
f 3/3/3 2/2/3 7/7/3 8/8/3 9/9/3 10/10/3 11/11/3 12/12/3
f 13/13/4 2/2/4 5/5/4 14/14/4 15/15/4 16/16/4 17/17/4 18/18/4
f 7/7/5 2/2/5 19/19/5 20/20/5
f 21/21/6 2/2/6 13/13/6 22/22/6
f 19/19/7 2/2/7 23/23/7
f 24/24/8 2/2/8 21/21/8 25/25/8
f 23/23/9 2/2/9 26/26/9 27/27/9 28/28/9 29/29/9
f 30/30/10 2/2/10 24/24/10 31/31/10 32/32/10 33/33/10 34/34/10 35/35/10
f 26/26/11 2/2/11 36/36/11
f 37/37/12 2/2/12 30/30/12 38/38/12
f 36/36/13 2/2/13 39/39/13 40/40/13 41/41/13 42/42/13
f 39/39/14 2/2/14 37/37/14
f 43/43/15 44/44/15 45/45/15
f 43/43/16 45/45/16 46/46/16
f 44/44/17 43/43/17 47/47/17 48/48/17
f 45/45/18 44/44/18 49/49/18
f 50/50/19 43/43/19 46/46/19
f 46/46/20 45/45/20 51/51/20
f 52/52/21 44/44/21 48/48/21 53/53/21
f 43/43/22 50/50/22 54/54/22 47/47/22
f 47/47/23 55/55/23 48/48/23
f 45/45/24 49/49/24 56/56/24
f 44/44/25 52/52/25 49/49/25
f 57/57/26 50/50/26 46/46/26
f 46/46/27 51/51/27 58/58/27
f 45/45/28 56/56/28 51/51/28
f 59/59/29 52/52/29 53/53/29 60/60/29
f 48/48/30 61/61/30 53/53/30
f 50/50/31 62/62/31 63/63/31 54/54/31
f 55/55/32 47/47/32 54/54/32
f 48/48/33 55/55/33 27/64/33 26/65/33 36/66/33 42/67/33 61/61/33
f 49/49/34 64/68/34 56/56/34
f 52/52/35 65/69/35 49/49/35
f 57/57/36 46/46/36 58/58/36
f 62/62/37 50/50/37 57/57/37
f 58/58/38 51/51/38 66/70/38
f 51/51/39 56/56/39 67/71/39
f 68/72/40 59/59/40 60/60/40 69/73/40
f 52/52/41 59/59/41 65/69/41
f 61/61/42 60/60/42 53/53/42
f 62/62/43 70/74/43 71/75/43 63/63/43
f 72/76/44 8/77/44 7/78/44 20/79/44 54/54/44 63/63/44
f 29/80/45 55/55/45 54/54/45 20/79/45 19/81/45 23/82/45
f 55/55/46 28/83/46 27/64/46
f 41/84/46 61/61/46 42/67/46
f 49/49/47 65/69/47 64/68/47
f 56/56/48 64/68/48 67/71/48
f 57/57/49 58/58/49 73/85/49
f 62/62/50 57/57/50 74/46/50
f 73/85/51 58/58/51 66/70/51
f 66/70/52 51/51/52 67/71/52
f 75/86/53 68/72/53 69/73/53 76/87/53
f 59/59/54 68/72/54 77/88/54
f 78/89/55 69/73/55 60/60/55 38/90/55 30/91/55 35/92/55
f 65/69/56 59/59/56 77/88/56
f 61/61/57 40/93/57 39/94/57 37/95/57 38/90/57 60/60/57
f 70/74/58 62/62/58 74/46/58
f 70/74/59 79/96/59 80/97/59 71/75/59
f 72/76/60 63/63/60 71/75/60 4/98/60 3/99/60 12/100/60
f 72/76/45 9/101/45 8/77/45
f 28/83/61 55/55/61 29/80/61
f 40/93/62 61/61/62 41/84/62
f 65/69/63 81/102/63 64/68/63
f 67/71/64 64/68/64 82/103/64
f 74/46/65 57/57/65 73/85/65
f 83/104/66 73/85/66 66/70/66
f 66/70/67 67/71/67 84/105/67
f 79/96/68 75/86/68 76/87/68 80/97/68
f 68/72/69 75/86/69 85/69/69
f 78/89/70 31/106/70 24/107/70 25/108/70 76/87/70 69/73/70
f 68/72/71 85/69/71 77/88/71
f 34/109/57 78/89/57 35/92/57
f 65/69/72 77/88/72 81/102/72
f 86/45/73 70/74/73 74/46/73
f 79/96/74 70/74/74 86/45/74
f 87/110/75 14/111/75 5/112/75 6/113/75 71/75/75 80/97/75
f 11/114/76 72/76/76 12/100/76
f 4/98/76 71/75/76 6/113/76 1/115/76
f 9/101/61 72/76/61 10/116/61
f 64/68/77 81/102/77 82/103/77
f 67/71/78 82/103/78 84/105/78
f 74/46/79 73/85/79 88/117/79
f 83/104/80 66/70/80 84/105/80
f 88/117/81 73/85/81 83/104/81
f 75/86/82 79/96/82 89/49/82
f 87/110/83 80/97/83 76/87/83 22/118/83 13/119/83 18/120/83
f 85/69/84 75/86/84 89/49/84
f 78/89/85 32/121/85 31/106/85
f 22/118/85 76/87/85 25/108/85 21/122/85
f 77/88/86 85/69/86 90/123/86
f 33/124/62 78/89/62 34/109/62
f 77/88/87 90/123/87 81/102/87
f 86/45/88 74/46/88 88/117/88
f 79/96/89 86/45/89 89/49/89
f 87/110/76 15/125/76 14/111/76
f 10/116/90 72/76/90 11/114/90
f 81/102/91 90/123/91 82/103/91
f 82/103/92 91/126/92 84/105/92
f 91/126/93 83/104/93 84/105/93
f 92/127/94 88/117/94 83/104/94
f 17/128/85 87/110/85 18/120/85
f 85/69/95 89/49/95 93/129/95
f 32/121/96 78/89/96 33/124/96
f 85/69/97 93/129/97 90/123/97
f 86/45/98 88/117/98 92/127/98
f 89/49/99 86/45/99 92/127/99
f 15/125/90 87/110/90 16/130/90
f 82/103/100 90/123/100 91/126/100
f 91/126/101 92/127/101 83/104/101
f 16/130/96 87/110/96 17/128/96
f 89/49/102 92/127/102 93/129/102
f 90/123/103 93/129/103 91/126/103
f 93/129/104 92/127/104 91/126/104
