# Blender v2.76 (sub 0) OBJ File: 'Soda.blend'
# www.blender.org
mtllib Soda.mtl
o Soda_Cylinder
v 0.000000 -0.005150 -0.404794
v 0.000000 1.382841 -0.522603
v 0.237932 -0.005150 -0.327485
v 0.307179 1.382841 -0.422795
v 0.384982 -0.005150 -0.125088
v 0.497025 1.382841 -0.161493
v 0.384982 -0.005150 0.125088
v 0.497025 1.382841 0.161493
v 0.237932 -0.005150 0.327485
v 0.307179 1.382841 0.422795
v -0.000000 -0.005150 0.404794
v -0.000000 1.382841 0.522603
v -0.237932 -0.005150 0.327485
v -0.307179 1.382841 0.422795
v -0.384982 -0.005150 0.125088
v -0.497025 1.382841 0.161493
v -0.384982 -0.005150 -0.125088
v -0.497025 1.382841 -0.161493
v -0.237932 -0.005150 -0.327485
v -0.307178 1.382841 -0.422795
v 0.373106 1.399002 -0.513536
v -0.000000 1.399002 -0.634766
v 0.603698 1.399002 -0.196153
v 0.603698 1.399002 0.196153
v 0.373106 1.399002 0.513536
v -0.000000 1.399002 0.634766
v -0.373106 1.399002 0.513536
v -0.603698 1.399002 0.196153
v -0.603698 1.399002 -0.196153
v -0.373106 1.399002 -0.513536
v 0.373106 1.565349 -0.513536
v -0.000000 1.565349 -0.634766
v 0.603698 1.565349 -0.196153
v 0.603698 1.565349 0.196153
v 0.373106 1.565349 0.513536
v -0.000000 1.565349 0.634766
v -0.373106 1.565349 0.513536
v -0.603698 1.565349 0.196153
v -0.603698 1.565349 -0.196153
v -0.373106 1.565349 -0.513536
v 0.323090 1.565349 -0.444696
v -0.000000 1.565349 -0.549674
v 0.522771 1.565349 -0.169859
v 0.522771 1.565349 0.169859
v 0.323090 1.565349 0.444696
v -0.000000 1.565349 0.549674
v -0.323090 1.565349 0.444696
v -0.522771 1.565349 0.169859
v -0.522771 1.565349 -0.169859
v -0.323090 1.565349 -0.444696
v 0.323090 1.672511 -0.444696
v -0.000000 1.672511 -0.549674
v 0.522771 1.672511 -0.169859
v 0.522771 1.672511 0.169859
v 0.323090 1.672511 0.444696
v -0.000000 1.672511 0.549674
v -0.323090 1.672511 0.444696
v -0.522771 1.672511 0.169859
v -0.522771 1.672511 -0.169859
v -0.323090 1.672511 -0.444696
v 0.000000 0.430329 -0.436593
v 0.256623 0.430329 -0.353211
v 0.415224 0.430329 -0.134915
v 0.415224 0.430329 0.134915
v 0.256623 0.430329 0.353211
v -0.000000 0.430329 0.436593
v -0.256623 0.430329 0.353211
v -0.415224 0.430329 0.134915
v -0.415224 0.430329 -0.134915
v -0.256623 0.430329 -0.353211
v 0.000000 1.077279 -0.495011
v 0.290960 1.077279 -0.400473
v 0.470784 1.077279 -0.152967
v 0.470784 1.077279 0.152967
v 0.290960 1.077279 0.400473
v -0.000000 1.077279 0.495011
v -0.290961 1.077279 0.400473
v -0.470784 1.077279 0.152967
v -0.470784 1.077279 -0.152967
v -0.290960 1.077279 -0.400473
v 0.039594 1.672511 -0.054497
v 0.000000 1.672511 -0.067362
v 0.064065 1.672511 -0.020816
v 0.064065 1.672511 0.020816
v 0.039594 1.672511 0.054497
v 0.000000 1.672511 0.067362
v -0.039594 1.672511 0.054497
v -0.064065 1.672511 0.020816
v -0.064065 1.672511 -0.020816
v -0.039594 1.672511 -0.054497
v 0.027189 1.672511 -0.037423
v 0.000000 1.672511 -0.046257
v 0.043993 1.672511 -0.014294
v 0.043993 1.672511 0.014294
v 0.027189 1.672511 0.037423
v 0.000000 1.672511 0.046257
v -0.027189 1.672511 0.037423
v -0.043993 1.672511 0.014294
v -0.043993 1.672511 -0.014294
v -0.027189 1.672511 -0.037423
v 0.027190 1.941123 -0.036189
v 0.000000 1.938873 -0.044732
v 0.043993 1.947014 -0.013823
v 0.043993 1.954295 0.013823
v 0.027190 1.960185 0.036189
v 0.000000 1.962435 0.044732
v -0.027189 1.960185 0.036189
v -0.043993 1.954295 0.013823
v -0.043993 1.947014 -0.013823
v -0.027189 1.941123 -0.036189
v 0.027190 1.980285 -0.045789
v 0.000000 1.976444 -0.053744
v 0.043994 1.990344 -0.024962
v 0.043994 2.002776 0.000782
v 0.027190 2.012835 0.021609
v 0.000000 2.016677 0.029564
v -0.027189 2.012835 0.021609
v -0.043993 2.002776 0.000782
v -0.043993 1.990344 -0.024962
v -0.027189 1.980285 -0.045789
v 0.027190 2.017788 -0.061965
v 0.000000 2.011725 -0.068390
v 0.043994 2.033661 -0.045142
v 0.043994 2.053280 -0.024349
v 0.027190 2.069153 -0.007526
v 0.000000 2.075216 -0.001101
v -0.027189 2.069153 -0.007526
v -0.043993 2.053280 -0.024349
v -0.043993 2.033661 -0.045142
v -0.027189 2.017788 -0.061965
v 0.027190 2.037246 -0.077218
v 0.000000 2.029350 -0.081181
v 0.043994 2.057916 -0.066842
v 0.043994 2.083466 -0.054017
v 0.027190 2.104136 -0.043641
v 0.000000 2.112032 -0.039677
v -0.027189 2.104136 -0.043641
v -0.043993 2.083466 -0.054017
v -0.043993 2.057916 -0.066842
v -0.027189 2.037246 -0.077218
v 0.027190 2.387002 -0.773992
v 0.000000 2.379106 -0.777955
v 0.043994 2.407672 -0.763616
v 0.043994 2.433223 -0.750791
v 0.027190 2.453893 -0.740415
v 0.000000 2.461788 -0.736452
v -0.027189 2.453893 -0.740415
v -0.043993 2.433223 -0.750791
v -0.043993 2.407672 -0.763616
v -0.027189 2.387002 -0.773992
v 0.022248 2.393081 -0.770940
v 0.000000 2.386620 -0.774183
v 0.035998 2.409994 -0.762451
v 0.035998 2.430901 -0.751956
v 0.022248 2.447814 -0.743466
v 0.000000 2.454274 -0.740223
v -0.022247 2.447814 -0.743466
v -0.035997 2.430901 -0.751956
v -0.035997 2.409994 -0.762451
v -0.022247 2.393081 -0.770940
vt 0.477991 0.915491
vt 0.522009 0.915491
vt 0.522009 0.959509
vt 0.477991 0.959509
vt 0.020960 0.474085
vt 0.064977 0.474085
vt 0.064977 0.518102
vt 0.020960 0.518102
vt 0.500000 0.959509
vt 0.512936 0.955305
vt 0.520931 0.944301
vt 0.520931 0.930699
vt 0.512936 0.919695
vt 0.500000 0.915491
vt 0.487064 0.919695
vt 0.479069 0.930699
vt 0.479069 0.944301
vt 0.487064 0.955305
vt 0.716239 0.052943
vt 0.717618 0.052943
vt 0.717618 0.054322
vt 0.716239 0.054322
vt 0.919398 0.466273
vt 0.963415 0.466273
vt 0.963415 0.510290
vt 0.919398 0.510290
vt 0.731247 0.068151
vt 0.731652 0.068019
vt 0.731903 0.067675
vt 0.731903 0.067248
vt 0.731652 0.066904
vt 0.731247 0.066772
vt 0.730842 0.066904
vt 0.730591 0.067248
vt 0.730591 0.067675
vt 0.730842 0.068019
vn 0.307900 -0.085600 -0.947600
vn 0.806100 -0.085600 -0.585600
vn 0.996300 -0.085600 0.000000
vn 0.806000 -0.085600 0.585600
vn 0.307900 -0.085600 0.947600
vn -0.307900 -0.085600 0.947600
vn -0.806100 -0.085600 0.585600
vn -0.996300 -0.085600 0.000000
vn -0.121200 -0.988700 0.088000
vn -0.307900 -0.085600 -0.947600
vn -0.806000 -0.085600 -0.585600
vn 0.000000 -1.000000 0.000000
vn 0.309000 0.000000 -0.951100
vn -0.046300 -0.988700 0.142500
vn 0.046300 -0.988700 0.142500
vn 0.121200 -0.988700 0.088000
vn 0.046300 -0.988700 -0.142500
vn 0.149800 -0.988700 0.000000
vn 0.121200 -0.988700 -0.088000
vn -0.046300 -0.988700 -0.142500
vn -0.121200 -0.988700 -0.088000
vn -0.149800 -0.988700 0.000000
vn 0.000000 1.000000 0.000000
vn -1.000000 0.000000 0.000000
vn 0.309000 0.000000 0.951100
vn 0.809000 0.000000 -0.587800
vn -0.809000 0.000000 -0.587800
vn -0.309000 0.000000 0.951100
vn 1.000000 0.000000 0.000000
vn -0.309000 0.000000 -0.951100
vn -0.809000 0.000000 0.587800
vn 0.809000 0.000000 0.587800
vn -0.807100 -0.069300 -0.586400
vn -0.308300 -0.069300 -0.948800
vn -0.997600 -0.069300 0.000000
vn -0.807100 -0.069300 0.586400
vn -0.308300 -0.069300 0.948800
vn 0.308300 -0.069300 0.948800
vn 0.807100 -0.069300 0.586400
vn 0.997600 -0.069300 0.000000
vn 0.807100 -0.069300 -0.586400
vn 0.308300 -0.069300 -0.948800
vn -0.806100 -0.085600 -0.585600
vn 0.804200 0.001900 -0.594300
vn -0.306800 0.255200 0.916900
vn -0.804200 0.001900 -0.594300
vn -0.304600 0.004600 0.952500
vn -0.304200 0.004900 -0.952600
vn -0.804400 0.001800 0.594000
vn 0.804400 0.001800 0.594000
vn 0.304200 0.004900 -0.952600
vn 0.304600 0.004500 0.952500
vn -0.305900 -0.224400 -0.925200
vn -0.806700 0.155700 0.570100
vn 0.806700 0.155700 0.570100
vn 0.305900 -0.224400 -0.925200
vn 0.306800 0.255200 0.916900
vn 0.806100 -0.144300 -0.573900
vn -0.806100 -0.144300 -0.573900
vn -0.293700 -0.576600 -0.762400
vn -0.300100 -0.372000 -0.878400
vn -0.803200 0.269800 0.531100
vn 0.803200 0.269800 0.531100
vn 0.300100 -0.372000 -0.878400
vn 0.303600 0.440000 0.845100
vn 0.801000 -0.245600 -0.545900
vn -0.801000 -0.245600 -0.545900
vn -0.303600 0.440000 0.845100
vn -0.809000 0.525300 0.263700
vn -0.801900 0.424500 0.420500
vn 0.801900 0.424500 0.420500
vn 0.293700 -0.576600 -0.762400
vn 0.302600 0.687100 0.660500
vn 0.797100 -0.389800 -0.461200
vn -0.797100 -0.389800 -0.461200
vn -0.302600 0.687100 0.660500
vn 0.000000 0.448600 -0.893700
vn 0.809000 0.525300 0.263700
vn 0.309000 -0.850000 -0.426700
vn 0.309000 0.850000 0.426700
vn 0.809000 -0.525300 -0.263700
vn -0.809000 -0.525300 -0.263700
vn -0.309000 0.850000 0.426700
vn -0.309000 -0.850000 -0.426700
usemtl Material.001
s off
f 71/1/1 2/2/1 4/3/1 72/4/1
f 72/1/2 4/2/2 6/3/2 73/4/2
f 73/1/3 6/2/3 8/3/3 74/4/3
f 74/1/4 8/2/4 10/3/4 75/4/4
f 75/1/5 10/2/5 12/3/5 76/4/5
f 76/1/6 12/2/6 14/3/6 77/4/6
f 77/1/7 14/2/7 16/3/7 78/4/7
f 78/1/8 16/2/8 18/3/8 79/4/8
f 16/5/9 14/6/9 27/7/9 28/8/9
f 80/1/10 20/2/10 2/3/10 71/4/10
f 79/1/11 18/2/11 20/3/11 80/4/11
f 1/9/12 3/10/12 5/11/12 7/12/12 9/13/12 11/14/12 13/15/12 15/16/12 17/17/12 19/18/12
f 21/5/13 22/6/13 32/7/13 31/8/13
f 14/5/14 12/6/14 26/7/14 27/8/14
f 12/5/15 10/6/15 25/7/15 26/8/15
f 10/5/16 8/6/16 24/7/16 25/8/16
f 4/5/17 2/6/17 22/7/17 21/8/17
f 8/5/18 6/6/18 23/7/18 24/8/18
f 6/5/19 4/6/19 21/7/19 23/8/19
f 2/5/20 20/6/20 30/7/20 22/8/20
f 20/5/21 18/6/21 29/7/21 30/8/21
f 18/5/22 16/6/22 28/7/22 29/8/22
f 39/5/23 38/6/23 48/7/23 49/8/23
f 29/5/24 28/6/24 38/7/24 39/8/24
f 26/5/25 25/6/25 35/7/25 36/8/25
f 23/5/26 21/6/26 31/7/26 33/8/26
f 30/5/27 29/6/27 39/7/27 40/8/27
f 27/5/28 26/6/28 36/7/28 37/8/28
f 24/5/29 23/6/29 33/7/29 34/8/29
f 22/5/30 30/6/30 40/7/30 32/8/30
f 28/5/31 27/6/31 37/7/31 38/8/31
f 25/5/32 24/6/32 34/7/32 35/8/32
f 46/5/25 45/6/25 55/7/25 56/8/25
f 36/5/23 35/6/23 45/7/23 46/8/23
f 33/5/23 31/6/23 41/7/23 43/8/23
f 40/5/23 39/6/23 49/7/23 50/8/23
f 37/5/23 36/6/23 46/7/23 47/8/23
f 34/5/23 33/6/23 43/7/23 44/8/23
f 32/5/23 40/6/23 50/7/23 42/8/23
f 38/5/23 37/6/23 47/7/23 48/8/23
f 35/5/23 34/6/23 44/7/23 45/8/23
f 31/5/23 32/6/23 42/7/23 41/8/23
f 55/5/23 54/6/23 84/7/23 85/8/23
f 43/5/26 41/6/26 51/7/26 53/8/26
f 50/5/27 49/6/27 59/7/27 60/8/27
f 47/5/28 46/6/28 56/7/28 57/8/28
f 44/5/29 43/6/29 53/7/29 54/8/29
f 42/5/30 50/6/30 60/7/30 52/8/30
f 48/5/31 47/6/31 57/7/31 58/8/31
f 45/5/32 44/6/32 54/7/32 55/8/32
f 41/5/13 42/6/13 52/7/13 51/8/13
f 49/5/24 48/6/24 58/7/24 59/8/24
f 17/1/33 69/2/33 70/3/33 19/4/33
f 19/1/34 70/2/34 61/3/34 1/4/34
f 15/1/35 68/2/35 69/3/35 17/4/35
f 13/1/36 67/2/36 68/3/36 15/4/36
f 11/1/37 66/2/37 67/3/37 13/4/37
f 9/1/38 65/2/38 66/3/38 11/4/38
f 7/1/39 64/2/39 65/3/39 9/4/39
f 5/1/40 63/2/40 64/3/40 7/4/40
f 3/1/41 62/2/41 63/3/41 5/4/41
f 1/1/42 61/2/42 62/3/42 3/4/42
f 69/5/43 79/6/43 80/7/43 70/8/43
f 70/5/10 80/6/10 71/7/10 61/8/10
f 68/5/8 78/6/8 79/7/8 69/8/8
f 67/5/7 77/6/7 78/7/7 68/8/7
f 66/5/6 76/6/6 77/7/6 67/8/6
f 65/5/5 75/6/5 76/7/5 66/8/5
f 64/5/4 74/6/4 75/7/4 65/8/4
f 63/5/3 73/6/3 74/7/3 64/8/3
f 62/5/2 72/6/2 73/7/2 63/8/2
f 61/5/1 71/6/1 72/7/1 62/8/1
f 86/19/23 85/20/23 95/21/23 96/22/23
f 51/5/23 52/6/23 82/7/23 81/8/23
f 59/5/23 58/6/23 88/7/23 89/8/23
f 56/5/23 55/6/23 85/7/23 86/8/23
f 53/5/23 51/6/23 81/7/23 83/8/23
f 60/5/23 59/6/23 89/7/23 90/8/23
f 57/5/23 56/6/23 86/7/23 87/8/23
f 54/5/23 53/6/23 83/7/23 84/8/23
f 52/5/23 60/6/23 90/7/23 82/8/23
f 58/5/23 57/6/23 87/7/23 88/8/23
f 93/23/44 91/24/44 101/25/44 103/26/44
f 83/19/23 81/20/23 91/21/23 93/22/23
f 90/19/23 89/20/23 99/21/23 100/22/23
f 87/19/23 86/20/23 96/21/23 97/22/23
f 84/19/23 83/20/23 93/21/23 94/22/23
f 82/19/23 90/20/23 100/21/23 92/22/23
f 88/19/23 87/20/23 97/21/23 98/22/23
f 85/19/23 84/20/23 94/21/23 95/22/23
f 81/19/23 82/20/23 92/21/23 91/22/23
f 89/19/23 88/20/23 98/21/23 99/22/23
f 107/23/45 106/24/45 116/25/45 117/26/45
f 100/23/46 99/24/46 109/25/46 110/26/46
f 97/23/47 96/24/47 106/25/47 107/26/47
f 94/23/29 93/24/29 103/25/29 104/26/29
f 92/23/48 100/24/48 110/25/48 102/26/48
f 98/23/49 97/24/49 107/25/49 108/26/49
f 95/23/50 94/24/50 104/25/50 105/26/50
f 91/23/51 92/24/51 102/25/51 101/26/51
f 99/23/24 98/24/24 108/25/24 109/26/24
f 96/23/52 95/24/52 105/25/52 106/26/52
f 114/23/29 113/24/29 123/25/29 124/26/29
f 104/23/29 103/24/29 113/25/29 114/26/29
f 102/23/53 110/24/53 120/25/53 112/26/53
f 108/23/54 107/24/54 117/25/54 118/26/54
f 105/23/55 104/24/55 114/25/55 115/26/55
f 101/23/56 102/24/56 112/25/56 111/26/56
f 109/23/24 108/24/24 118/25/24 119/26/24
f 106/23/57 105/24/57 115/25/57 116/26/57
f 103/23/58 101/24/58 111/25/58 113/26/58
f 110/23/59 109/24/59 119/25/59 120/26/59
f 122/23/60 130/24/60 140/25/60 132/26/60
f 112/23/61 120/24/61 130/25/61 122/26/61
f 118/23/62 117/24/62 127/25/62 128/26/62
f 115/23/63 114/24/63 124/25/63 125/26/63
f 111/23/64 112/24/64 122/25/64 121/26/64
f 119/23/24 118/24/24 128/25/24 129/26/24
f 116/23/65 115/24/65 125/25/65 126/26/65
f 113/23/66 111/24/66 121/25/66 123/26/66
f 120/23/67 119/24/67 129/25/67 130/26/67
f 117/23/68 116/24/68 126/25/68 127/26/68
f 138/23/69 137/24/69 147/25/69 148/26/69
f 128/23/70 127/24/70 137/25/70 138/26/70
f 125/23/71 124/24/71 134/25/71 135/26/71
f 121/23/72 122/24/72 132/25/72 131/26/72
f 129/23/24 128/24/24 138/25/24 139/26/24
f 126/23/73 125/24/73 135/25/73 136/26/73
f 123/23/74 121/24/74 131/25/74 133/26/74
f 130/23/75 129/24/75 139/25/75 140/26/75
f 127/23/76 126/24/76 136/25/76 137/26/76
f 124/23/29 123/24/29 133/25/29 134/26/29
f 141/23/77 142/24/77 152/25/77 151/26/77
f 135/23/78 134/24/78 144/25/78 145/26/78
f 131/23/79 132/24/79 142/25/79 141/26/79
f 139/23/24 138/24/24 148/25/24 149/26/24
f 136/23/80 135/24/80 145/25/80 146/26/80
f 133/23/81 131/24/81 141/25/81 143/26/81
f 140/23/82 139/24/82 149/25/82 150/26/82
f 137/23/83 136/24/83 146/25/83 147/26/83
f 134/23/29 133/24/29 143/25/29 144/26/29
f 132/23/84 140/24/84 150/25/84 142/26/84
f 151/27/77 152/28/77 160/29/77 159/30/77 158/31/77 157/32/77 156/33/77 155/34/77 154/35/77 153/36/77
f 149/23/77 148/24/77 158/25/77 159/26/77
f 146/23/77 145/24/77 155/25/77 156/26/77
f 143/23/77 141/24/77 151/25/77 153/26/77
f 150/23/77 149/24/77 159/25/77 160/26/77
f 147/23/77 146/24/77 156/25/77 157/26/77
f 144/23/77 143/24/77 153/25/77 154/26/77
f 142/23/77 150/24/77 160/25/77 152/26/77
f 148/23/77 147/24/77 157/25/77 158/26/77
f 145/23/77 144/24/77 154/25/77 155/26/77
